<svg id="Layer_1" data-name="Layer 1" xmlns="http://www.w3.org/2000/svg" viewBox="0 0 97.12 137.7"><defs><style>.cls-1,.cls-3{fill:#e9f0f4;}.cls-2{fill:#c2c9cc;}.cls-3{stroke:#dae1e5;stroke-width:5.14px;}.cls-3,.cls-5,.cls-7,.cls-8{stroke-miterlimit:10;}.cls-4{fill:#dae1e5;}.cls-5,.cls-7,.cls-8{fill:none;}.cls-5{stroke:#c2c9cc;stroke-width:2.69px;}.cls-6{fill:#fff;}.cls-7,.cls-8{stroke:#fff;}.cls-7{stroke-width:2.57px;}.cls-8{stroke-width:1.14px;}</style></defs><ellipse class="cls-1" cx="48.56" cy="133.07" rx="39.41" ry="4.64"/><path class="cls-2" d="M53.14,30.87c2.36-14,10.94-24.43,21.2-24.43S93.18,16.85,95.53,30.87h5.7C100.12,14.32,88.52,1.3,74.34,1.3s-25.79,13-26.89,29.57Z" transform="translate(-21.92 -1.3)"/><path class="cls-3" d="M110.16,119.57H30.81a6.42,6.42,0,0,1-6.31-6.8l3.29-75.69a6.39,6.39,0,0,1,6.31-6.21h72.77a6.39,6.39,0,0,1,6.3,6.21l3.3,75.69A6.43,6.43,0,0,1,110.16,119.57Z" transform="translate(-21.92 -1.3)"/><path class="cls-4" d="M45.43,30.87c2.35-14,10.94-24.43,21.19-24.43s18.85,10.41,21.2,24.43h5.69C92.41,14.32,80.81,1.3,66.62,1.3s-25.78,13-26.88,29.57Z" transform="translate(-21.92 -1.3)"/><line class="cls-5" x1="72.99" y1="27" x2="72.99" y2="57.85"/><circle class="cls-6" cx="12.38" cy="86.13" r="2.57"/><path class="cls-7" d="M33.63,97.59l0,5.71a5.9,5.9,0,0,0,5.86,6.24l33.7.21" transform="translate(-21.92 -1.3)"/><path class="cls-2" d="M104.68,94.19,94.57,88.76,84.36,94a1.78,1.78,0,0,1-2.57-1.9l2-11.3-8.15-8.08a1.79,1.79,0,0,1,1-3l11.37-1.55,5.17-10.25a1.78,1.78,0,0,1,3.2,0l5,10.34L112.77,70a1.78,1.78,0,0,1,1,3L105.44,81l1.85,11.33A1.79,1.79,0,0,1,104.68,94.19Z" transform="translate(-21.92 -1.3)"/><circle class="cls-6" cx="68.52" cy="72.22" r="2.28"/><circle class="cls-6" cx="77.66" cy="72.37" r="2.28"/><path class="cls-8" d="M90.29,82.65a5.7,5.7,0,0,1,9.13.15" transform="translate(-21.92 -1.3)"/></svg>