<?xml version="1.0" standalone="no"?>
<!DOCTYPE svg PUBLIC "-//W3C//DTD SVG 20010904//EN"
 "http://www.w3.org/TR/2001/REC-SVG-20010904/DTD/svg10.dtd">
<svg version="1.0"
    xmlns="http://www.w3.org/2000/svg" width="512.000000pt" height="512.000000pt" viewBox="0 0 512.000000 512.000000" preserveAspectRatio="xMidYMid meet">
    <metadata>
Created by potrace 1.16, written by Peter Selinger 2001-2019
    </metadata>
    <g transform="translate(0.000000,512.000000) scale(0.100000,-0.100000)" fill="#000000" stroke="none">
        <path d="M2270 5105 c-862 -119 -1561 -742 -1779 -1585 -47 -182 -65 -323 -65
-515 0 -136 5 -190 22 -271 100 -467 443 -1030 1016 -1669 137 -153 512 -530
691 -695 164 -151 394 -350 405 -350 12 0 305 256 454 395 154 145 492 484
604 607 494 542 846 1071 991 1492 68 196 85 294 85 491 0 963 -666 1815
-1602 2051 -73 19 -185 41 -248 49 -140 18 -441 18 -574 0z m443 -1070 c430
-65 760 -366 880 -805 25 -93 30 -360 9 -450 -54 -223 -147 -394 -294 -541
-413 -413 -1082 -415 -1493 -4 -136 136 -230 299 -282 490 -25 91 -28 115 -27
265 1 134 5 179 21 240 53 192 140 351 262 483 157 167 382 286 609 322 116
18 198 18 315 0z"/>
        <path d="M2412 3615 c-227 -51 -418 -240 -477 -470 -19 -77 -19 -243 0 -320
44 -172 176 -336 335 -413 192 -94 388 -94 580 0 161 78 292 241 336 418 24
97 15 282 -18 372 -36 96 -84 171 -154 242 -122 121 -252 177 -429 182 -72 2
-132 -1 -173 -11z"/>
    </g>
</svg>
