<svg
  width="739"
  height="156"
  viewBox="0 0 739 156"
  fill="none"
  xmlns="http://www.w3.org/2000/svg"
  >
<path
d="M285.728 155.995C278.358 156.067 271.049 154.655 264.238 151.846C257.801 149.167 251.986 145.196 247.155 140.18C242.269 135.06 238.436 129.035 235.875 122.445C233.117 115.366 231.736 107.829 231.807 100.235C231.735 92.5058 233.148 84.8338 235.97 77.6341C238.627 70.8676 242.562 64.6726 247.562 59.3854C252.568 54.103 258.614 49.908 265.321 47.0633C272.028 44.2186 279.253 42.7853 286.541 42.8534C293.89 42.7773 301.17 44.2659 307.895 47.2195C314.266 50.0235 319.927 54.2126 324.463 59.48C329.043 64.7978 332.295 71.1206 333.954 77.9315L306.838 83.2033C305.02 78.8972 302.069 75.1608 298.296 72.3893C294.712 69.7696 290.376 68.3713 285.931 68.4016C281.298 68.3234 276.764 69.7464 273.01 72.4569C269.146 75.3773 266.12 79.2609 264.238 83.717C262.011 88.7944 260.901 94.2888 260.984 99.83C260.878 105.266 261.951 110.661 264.13 115.646C266.04 119.985 269.101 123.724 272.983 126.46C276.777 129.101 281.304 130.495 285.931 130.447C290.617 130.523 295.219 129.205 299.15 126.662C303.145 124.017 306.204 120.187 307.895 115.713L335.012 120.985C333.36 127.936 329.963 134.355 325.141 139.639C320.317 144.921 314.381 149.075 307.76 151.805C300.773 154.665 293.28 156.09 285.728 155.995Z"
fill="white"
/>
<path
d="M395.318 155.996C387.641 156.073 380.026 154.625 372.928 151.738C366.207 149.01 360.114 144.97 355.014 139.86C349.915 134.749 345.914 128.674 343.253 121.999C340.393 114.812 338.97 107.146 339.063 99.4249C338.978 91.75 340.445 84.1354 343.376 77.0264C346.158 70.3314 350.232 64.2344 355.372 59.075C360.522 53.9287 366.67 49.8599 373.448 47.112C380.65 44.2182 388.364 42.7707 396.139 42.854C403.802 42.7823 411.402 44.2302 418.488 47.112C425.198 49.8601 431.282 53.9075 436.381 59.0152C441.48 64.1229 445.491 70.1874 448.176 76.8506C451.038 83.9813 452.465 91.5935 452.38 99.2627C452.458 106.972 450.992 114.621 448.067 121.769C445.301 128.504 441.22 134.635 436.057 139.815C430.907 144.962 424.76 149.03 417.981 151.778C410.784 154.653 403.081 156.087 395.318 155.996V155.996ZM395.728 130.448C400.692 130.515 405.56 129.102 409.696 126.392C413.876 123.615 417.243 119.802 419.46 115.335C421.922 110.389 423.152 104.935 423.048 99.4249C423.15 93.9154 421.92 88.4612 419.46 83.5148C417.243 79.0483 413.876 75.2352 409.696 72.4574C405.531 69.81 400.682 68.4022 395.728 68.4022C390.775 68.4022 385.926 69.81 381.761 72.4574C377.586 75.237 374.224 79.0499 372.01 83.5148C369.546 88.4602 368.311 93.9144 368.409 99.4249C368.31 104.936 369.545 110.39 372.01 115.335C374.224 119.8 377.586 123.613 381.761 126.392C385.897 129.102 390.765 130.515 395.728 130.448V130.448Z"
fill="white"
/>
<path
d="M488.723 152.652L448.332 45.5281H479.543L503.614 122.625L528.093 45.5281H558.284L517.88 152.652H488.723Z"
fill="white"
/>
<path
d="M609.484 155.997C601.882 156.078 594.338 154.667 587.287 151.847C580.691 149.181 574.732 145.174 569.793 140.087C564.802 134.887 560.908 128.752 558.34 122.041C555.554 114.754 554.167 107.015 554.25 99.2232C554.184 91.5996 555.572 84.0324 558.34 76.9194C560.912 70.2642 564.77 64.171 569.698 58.9817C574.518 53.9197 580.326 49.8818 586.769 47.1134C593.486 44.2386 600.736 42.7882 608.053 42.8554C615.449 42.7585 622.789 44.1376 629.637 46.9106C635.97 49.5207 641.655 53.4642 646.299 58.468C651.039 63.6501 654.691 69.7156 657.043 76.3111C659.646 83.7403 660.924 91.5621 660.82 99.426V106.523H583.306C584.533 114.543 587.464 120.806 592.1 125.312C594.42 127.557 597.175 129.313 600.197 130.474C603.22 131.636 606.449 132.179 609.689 132.071C614.386 132.124 619.013 130.934 623.092 128.624C627.21 126.221 630.627 122.797 633.005 118.688L658.57 126.799C656.179 132.792 652.395 138.141 647.526 142.412C642.495 146.811 636.664 150.22 630.346 152.455C623.655 154.837 616.594 156.035 609.484 155.997V155.997ZM608.121 64.7537C605.206 64.6806 602.305 65.1804 599.586 66.2244C596.866 67.2685 594.382 68.836 592.277 70.8365C587.978 74.8918 585.146 80.4339 583.783 87.463H631.437C630.346 80.4339 627.723 74.8918 623.569 70.8365C621.533 68.8343 619.108 67.2627 616.44 66.2172C613.773 65.1716 610.92 64.6737 608.053 64.7537H608.121Z"
fill="white"
/>
<path
d="M733.852 45.1052C733.193 44.963 732.534 44.7924 731.817 44.6787C729.897 44.3376 728.005 44.167 726.085 44.167C719.807 44.167 714.361 45.7022 709.746 48.7158C705.103 51.7577 701.434 56.1075 698.711 61.7934L697.679 45.5885H671.309V152.627H699.915V100.117C699.915 91.332 702.036 84.5373 706.249 79.7326C710.463 74.928 716.54 72.5399 724.451 72.5399C726.085 72.5399 727.69 72.6536 729.238 72.8526C730.785 73.0516 732.333 73.4212 733.824 73.9614V45.1052H733.852Z"
fill="white"
/>
<path
d="M49.7463 155.998C42.9555 156.064 36.2374 154.609 30.0948 151.74C24.0791 148.895 18.7149 144.86 14.3327 139.885C9.73857 134.665 6.16172 128.647 3.78364 122.136C1.20456 115.051 -0.0756182 107.566 0.00345117 100.035C-0.0731093 92.362 1.24432 84.7383 3.89281 77.5277C6.36669 70.8634 10.0686 64.7122 14.8103 59.387C19.3585 54.2509 24.9353 50.1079 31.1866 47.2211C37.5114 44.3075 44.4087 42.8164 51.3839 42.8548C58.07 42.7587 64.6775 44.2905 70.626 47.3157C76.3271 50.2622 81.1853 54.5862 84.7505 59.8871L85.5693 45.8963H111.976V152.956H85.5693L84.7505 137.343C81.121 143.087 76.0406 147.793 70.0119 150.996C63.7947 154.34 56.8206 156.061 49.7463 155.998V155.998ZM56.5015 130.449C61.4478 130.517 66.2995 129.103 70.4213 126.394C74.5817 123.614 77.9323 119.802 80.1379 115.337C82.5954 110.392 83.8258 104.937 83.727 99.4263C83.8242 93.9157 82.5939 88.4615 80.1379 83.516C77.9323 79.0511 74.5817 75.2381 70.4213 72.4585C66.2995 69.7493 61.4478 68.3359 56.5015 68.4032C51.5552 68.3359 46.7036 69.7493 42.5817 72.4585C38.4163 75.2363 35.0609 79.0495 32.8515 83.516C30.3997 88.4625 29.174 93.9167 29.276 99.4263C29.1724 104.936 30.3982 110.391 32.8515 115.337C35.0609 119.803 38.4163 123.616 42.5817 126.394C46.7036 129.103 51.5552 130.517 56.5015 130.449Z"
fill="#FF385C"
/>
<path
d="M156.019 16.2004C156.079 19.1444 155.327 22.0494 153.843 24.6057C152.412 27.0344 150.343 29.0387 147.853 30.4081C145.293 31.8039 142.415 32.5362 139.488 32.5362C136.562 32.5362 133.683 31.8039 131.123 30.4081C128.633 29.0387 126.564 27.0344 125.133 24.6057C123.666 22.0679 122.919 19.188 122.971 16.2682C122.919 13.3483 123.666 10.4684 125.133 7.93062C126.561 5.50319 128.631 3.50256 131.123 2.1418C133.68 0.737292 136.56 0 139.488 0C142.416 0 145.296 0.737292 147.853 2.1418C150.345 3.50256 152.415 5.50319 153.843 7.93062C155.303 10.4472 156.054 13.3022 156.019 16.2004ZM125.037 152.651V45.28H153.953V152.651H125.037Z"
fill="#FF385C"
/>
<path
d="M229.727 45.1032C229.068 44.9611 228.409 44.7905 227.692 44.6768C225.772 44.3356 223.88 44.165 221.96 44.165C215.682 44.165 210.236 45.7002 205.621 48.7138C200.978 51.7558 197.309 56.1055 194.586 61.7915L193.554 45.5865H167.184V152.625H195.79V100.115C195.79 91.33 197.911 84.5353 202.124 79.7307C206.338 74.926 212.415 72.5379 220.326 72.5379C221.96 72.5379 223.565 72.6517 225.113 72.8507C226.66 73.0497 228.208 73.4193 229.699 73.9594V45.1032H229.727Z"
fill="#FF385C"
/>
  </svg>
