<svg fill="none" height="164" viewBox="0 0 150 164" width="150" xmlns="http://www.w3.org/2000/svg" xmlns:xlink="http://www.w3.org/1999/xlink"><filter id="a" color-interpolation-filters="sRGB" filterUnits="userSpaceOnUse" height="153.211" width="85.8644" x="32.0511" y="25.5852"><feFlood flood-opacity="0" result="BackgroundImageFix"/><feColorMatrix in="SourceAlpha" result="hardAlpha" type="matrix" values="0 0 0 0 0 0 0 0 0 0 0 0 0 0 0 0 0 0 127 0"/><feOffset dy="1.10619"/><feGaussianBlur stdDeviation="2.76549"/><feColorMatrix type="matrix" values="0 0 0 0 0 0 0 0 0 0 0 0 0 0 0 0 0 0 0.3 0"/><feBlend in2="BackgroundImageFix" mode="normal" result="effect1_dropShadow_486_5385"/><feBlend in="SourceGraphic" in2="effect1_dropShadow_486_5385" mode="normal" result="shape"/></filter><mask id="b" height="164" maskUnits="userSpaceOnUse" width="150" x="0" y="0"><path d="m0 0h150v164h-150z" fill="#fff"/></mask><mask id="c" height="151" maskUnits="userSpaceOnUse" width="151" x="-1" y="22"><path d="m149.98 97.1287c0 11.2643-2.473 21.9413-6.923 31.5223-11.888 25.703-37.895 43.507-68.077 43.507-30.1721 0-56.1787-17.804-68.07728-43.507-4.44929-9.581-6.9222512-20.258-6.9222512-31.5223 0-41.4487 33.5673312-75.0293 74.9995312-75.0293 41.442 0 75 33.5806 75 75.0293z" fill="#b6babf"/></mask><g mask="url(#b)"><path d="m149.98 96.1149c0 11.2641-2.473 21.9411-6.922 31.5221-11.888 25.703-37.895 43.507-68.0771 43.507-30.1721 0-56.1787-17.804-68.07732-43.507-4.4493-9.581-6.9222568-20.258-6.9222568-31.5221 0-41.4487 33.5673768-75.0293 74.9995768-75.0293 41.4421 0 74.9991 33.5806 74.9991 75.0293z" fill="#f0f1f2"/><path d="m120.645 155.549v-131.2384c0-6.2536-5.119-11.3359-11.417-11.3359h-68.498c-6.298 0-11.4164 5.0823-11.4164 11.3359v131.2324c12.6456 9.722 28.4799 15.498 45.6656 15.498 17.1881 0 33.0218-5.774 45.6658-15.492z" fill="#42474c"/><path clip-rule="evenodd" d="m117.55 23.1138h-85.1351v112.5442h.0007v22.247c12.0919 8.351 26.7578 13.239 42.5673 13.239 15.8116 0 30.4771-4.886 42.5671-13.234v-27.322z" fill="#f0f1f2" fill-rule="evenodd"/><g mask="url(#c)"><g filter="url(#a)"><rect fill="#fff" height="142.149" rx="4.42478" width="74.8025" x="37.582" y="30.01"/></g></g><path d="m83.3578 150.866h-33.9823c-1.246 0-2.2655-.913-2.2655-2.028v-4.056c0-1.115 1.0195-2.027 2.2655-2.027h33.9823c1.246 0 2.2655.912 2.2655 2.027v4.056c0 1.115-1.0195 2.028-2.2655 2.028z" fill="#e8e9eb"/><path d="m75.3434 135.657h-26.0616c-1.1945 0-2.1718-.912-2.1718-2.028 0-1.115.9773-2.027 2.1718-2.027h26.0616c1.1945 0 2.1718.912 2.1718 2.027 0 1.116-.9773 2.028-2.1718 2.028z" fill="#e8e9eb"/><path d="m77.3801 103.212h-28.108c-1.1891 0-2.1621-.912-2.1621-2.028 0-1.115.973-2.0274 2.1621-2.0274h28.108c1.1891 0 2.1621.9124 2.1621 2.0274 0 1.116-.973 2.028-2.1621 2.028z" fill="#d2d5d9"/><path d="m102.853 39.3358h-55.743v49.6816h55.743z" fill="#e9af58"/><path d="m81.8137 48.4607s-2.0156.9717-6.7659.9717-6.8967-.9717-6.8967-.9717l-14.9591 5.7978 2.0156 9.0261 7.7901-1.8679v20.503h23.9694v-20.5677l7.7901 1.9326 2.0156-9.0261z" fill="#108060"/><path d="m81.5701 48.4612c0 3.3569-2.9664 6.0832-6.6191 6.0832-3.5894 0-6.5559-2.7263-6.5559-6.0832 0 0 2.1431.8732 6.6826.8732 4.5394 0 6.4924-.8732 6.4924-.8732z" fill="#02614e"/><path d="m102.853 71.7809h-55.743v17.2364h55.743z" fill="#e0a143"/><path d="m87.0288 71.7809h-24.0312v10.1391h24.0312z" fill="#02614e"/><path d="m50.1504 120.448c1.6793 0 3.0403-1.361 3.0403-3.041s-1.361-3.042-3.0403-3.042-3.0404 1.362-3.0404 3.042 1.3611 3.041 3.0404 3.041z" fill="#108060"/><g fill="#d2d5d9"><path d="m63.326 120.448c1.6793 0 3.0404-1.361 3.0404-3.041s-1.3611-3.042-3.0404-3.042-3.0404 1.362-3.0404 3.042 1.3611 3.041 3.0404 3.041z"/><path d="m75.4863 120.448c1.6793 0 3.0404-1.361 3.0404-3.041s-1.3611-3.042-3.0404-3.042-3.0404 1.362-3.0404 3.042 1.3611 3.041 3.0404 3.041z"/></g></g></svg>