<svg fill="none" height="164" viewBox="0 0 150 164" width="150" xmlns="http://www.w3.org/2000/svg" xmlns:xlink="http://www.w3.org/1999/xlink"><mask id="a" height="164" maskUnits="userSpaceOnUse" width="150" x="0" y="0"><path d="m0 0h150v164h-150z" fill="#fff"/></mask><mask id="b" height="150" maskUnits="userSpaceOnUse" width="151" x="-1" y="25"><path d="m149.98 100.132c0 11.228-2.472 21.87-6.922 31.42-11.888 25.619-37.895 43.365-68.0775 43.365-30.1723 0-56.1791-17.746-68.07773-43.365-4.44933-9.55-6.9223012-20.192-6.9223012-31.42 0-41.3129 33.5675312-74.784 75.0000312-74.784 41.4425 0 74.9995 33.4711 74.9995 74.784z" fill="#b6babf"/></mask><g mask="url(#a)"><path d="m149.98 100.133c0 11.228-2.472 21.869-6.922 31.419-11.888 25.619-37.895 43.365-68.0775 43.365-30.1723 0-56.1791-17.746-68.07773-43.365-4.44933-9.55-6.9223012-20.191-6.9223012-31.419 0-41.3135 33.5675312-74.7846 75.0000312-74.7846 41.4425 0 74.9995 33.4711 74.9995 74.7846z" fill="#f0f1f2"/><path d="m120.644 159.373v-130.8092c0-6.2332-5.118-11.2989-11.416-11.2989h-68.499c-6.2981 0-11.4165 5.0657-11.4165 11.2989v130.8042c12.6456 9.69 28.4801 15.447 45.6659 15.447 17.1882 0 33.0226-5.755 45.6656-15.442z" fill="#42474c"/><path clip-rule="evenodd" d="m117.549 27.3706h-85.1348v107.1234h-.0004v27.227c12.092 8.324 26.7579 13.197 42.5676 13.197 15.8116 0 30.4776-4.87 42.5676-13.191v-22.18z" fill="#f0f1f2" fill-rule="evenodd"/><g mask="url(#b)"><path d="m0 0h77.0461v107.15h-77.0461z" fill="#fff" transform="matrix(1 0 0 -1 36.4873 180.019)"/><g fill="#e8e9eb"><path d="m104.924 141.568h-22.3894c-1.3683 0-2.4877-1.116-2.4877-2.48v-22.325c0-1.365 1.1194-2.481 2.4877-2.481h22.3894c1.368 0 2.488 1.116 2.488 2.481v22.325c0 1.364-1.12 2.48-2.488 2.48z"/><path d="m104.924 175.929h-22.3894c-1.3683 0-2.4877-1.117-2.4877-2.481v-22.325c0-1.364 1.1194-2.481 2.4877-2.481h22.3894c1.368 0 2.488 1.117 2.488 2.481v22.325c0 1.364-1.12 2.481-2.488 2.481z"/><path d="m68.4357 141.569h-22.3894c-1.3682 0-2.4877-1.116-2.4877-2.48v-22.325c0-1.365 1.1195-2.481 2.4877-2.481h22.3894c1.3683 0 2.4878 1.116 2.4878 2.481v22.325c0 1.364-1.1195 2.48-2.4878 2.48z"/><path d="m68.4358 175.929h-22.3895c-1.3682 0-2.4877-1.117-2.4877-2.481v-22.325c0-1.364 1.1195-2.481 2.4877-2.481h22.3895c1.3682 0 2.4877 1.117 2.4877 2.481v22.325c0 1.364-1.1195 2.481-2.4877 2.481z"/></g><path d="m97.018 177.285h-6.3836c-1.4983 0-2.7125-1.211-2.7125-2.705v-20.271h11.8086v20.271c.0071 1.494-1.2142 2.705-2.7125 2.705z" fill="#b6babf"/><path d="m99.7378 154.309h-11.8081v5.692h11.8081z" fill="#828a91"/><path d="m91.5298 174.578v-14.579h-3.6001v14.579c0 1.494 1.2142 2.705 2.7125 2.705h3.6001c-1.4982 0-2.7125-1.211-2.7125-2.705z" fill="#828a91"/><path d="m91.5296 154.309h-3.5999v5.692h3.5999z" fill="#6b7177"/><path clip-rule="evenodd" d="m53.2939 162.38c1.8596 0 3.367-1.578 3.367-3.525s-1.5074-3.525-3.367-3.525-3.367 1.578-3.367 3.525 1.5074 3.525 3.367 3.525zm0 1.592c2.6994 0 4.8877-2.291 4.8877-5.117s-2.1883-5.118-4.8877-5.118-4.8877 2.292-4.8877 5.118 2.1883 5.117 4.8877 5.117z" fill="#828a91" fill-rule="evenodd"/><path d="m65.6402 153.737h-12.6718l-.9787 21.228h13.1436l-2.0275-15.921 2.5344-4.245z" fill="#9fa5ab"/><path d="m52.9684 153.737h2.5343v21.228h-3.513z" fill="#828a91"/></g><path d="m83.7122 110.034h-38.9776c-1.2394 0-2.1872-1.051-2.1872-2.424s.9478-2.423 2.1872-2.423h38.9776c1.2394 0 2.1872 1.05 2.1872 2.423s-1.0207 2.424-2.1872 2.424z" fill="#e8e9eb"/><path d="m36.4883 98.1388h77.0457v-62.2902c0-2.4444-1.981-4.4259-4.426-4.4259h-68.1939c-2.4443 0-4.4258 1.9816-4.4258 4.4259z" fill="#d2d5d9"/><path d="m0 0h77.046v15.1628h-77.046z" fill="#d9942d" transform="matrix(1 0 0 -1 36.4883 98.1388)"/><path d="m107.395 41.5474h-53.6372v49.4208h53.6372z" fill="#1f2225"/><path d="m88.6953 73.8021c0-3.9703 3.2186-7.1888 7.1889-7.1888 3.9703 0 7.1888 3.2185 7.1888 7.1888v17.2933h-14.3777z" fill="#108060"/><path d="m90.1326 73.9066c0-3.1761 2.5747-5.7508 5.7508-5.7508 3.1761 0 5.7506 2.5747 5.7506 5.7508v9.3017h-11.5014z" fill="#7fbec6"/><path d="m90.1326 73.9066c0-3.1761 2.5747-5.7508 5.7508-5.7508 3.1761 0 5.7506 2.5747 5.7506 5.7508v2.1338h-11.5014z" fill="#5ba7b1"/><path d="m94.7812 67.1656h2.21196v21.5046h-2.21196z" fill="#108060"/><path d="m90.1326 84.645h11.5014v5.0175h-11.5014z" fill="#02614e"/><path d="m89.2461 81.4996h1.10594v4.41098h-1.10594z" fill="#1f2225"/><path d="m84.989 67.9493h-27.1579v16.248h27.1579z" fill="#7fbec6"/><path d="m84.989 67.9493h-27.1579v8.801h27.1579z" fill="#5ba7b1"/><path d="m44.9297 66.5954v20.3099h1.3579v-20.3099z" fill="#1f2225"/><path d="m49.6822 71.3334h-8.147v8.8005h8.147z" fill="#108060"/><path d="m48.322 62.5331h-5.4314v6.0927h5.4314z" fill="#108060"/><path d="m49.6822 84.1954h-8.147v6.7697h8.147z" fill="#1f2225"/><path d="m49.6822 82.844h-8.147v2.0309h8.147z" fill="#28a783"/><path d="m111.464 55.0861h-61.7843v3.88c0 1.2222.9908 2.2129 2.2129 2.2129h57.3584c1.222 0 2.213-.9907 2.213-2.2129z" fill="#02614e"/><path d="m107.391 47.5786h-53.7562l-3.9981 8.0848h61.8243z" fill="#28a783"/><g fill="#02614e"><ellipse cx="54.7668" cy="60.2978" rx="5.06364" ry="3.60628"/><ellipse cx="62.6449" cy="60.2978" rx="5.06364" ry="3.60628"/><ellipse cx="71.6447" cy="60.2978" rx="5.06366" ry="3.60628"/><ellipse cx="80.6496" cy="60.2978" rx="5.06366" ry="3.60628"/><ellipse cx="88.5246" cy="60.2978" rx="5.06366" ry="3.60628"/><ellipse cx="97.5287" cy="60.2978" rx="5.06365" ry="3.60628"/><ellipse cx="106.532" cy="60.2978" rx="5.06365" ry="3.60628"/><path d="m53.7197 36.4769h53.7295v5.05424h-53.7295z"/></g><path d="m70.0784 67.2925h3.39561v17.6063h-3.39561z" fill="#1f2225"/></g><path d="m60.8068 130.289h-6.1388v1.029h6.1388z" fill="#828a91"/><path d="m54.6735 123.839c-3.9562.551-7.1003-1.547-7.1003-1.547 0 4.709 3.8182 8.525 8.537 8.547h.0386 3.1772c2.492 0 4.7243-1.063 6.2936-2.753l-7.8186-5.26c-.8123.418-1.735.815-3.1275 1.013z" fill="#828a91"/><path d="m67.6916 122.286c-1.3537-.65-2.9893-1.03-4.7464-1.03-2.6578 0-3.7408.821-5.1498 1.559l7.8186 5.26c1.3925-1.499 2.2544-3.492 2.2821-5.69-.0664-.027-.1327-.066-.2045-.099z" fill="#b6babf"/><path d="m54.6735 123.839c1.3925-.193 2.3152-.589 3.1275-1.019.011-.005.0276-.016.0387-.022-1.4919-.76-2.5528-1.641-5.3101-1.641-1.7571 0-3.3926.38-4.7464 1.03-.0718.033-.1381.072-.21.105.0056 0 3.1496 2.098 7.1003 1.547z" fill="#6b7177"/><path d="m98.9723 123.329-1.7494-7.251h-5.817l-1.7495 7.251c-.3466 1.433-.4712 2.901-.4062 4.357h10.1283c.065-1.456-.0595-2.924-.4062-4.357z" fill="#b6babf"/><path d="m89.25 127.686c.0812 1.703.4333 3.394 1.067 4.98l1.0887 2.718h5.817l1.0886-2.718c.6337-1.586.9858-3.277 1.067-4.98z" fill="#6b7177"/></svg>