<svg fill="none" height="164" viewBox="0 0 150 164" width="150" xmlns="http://www.w3.org/2000/svg" xmlns:xlink="http://www.w3.org/1999/xlink"><filter id="a" color-interpolation-filters="sRGB" filterUnits="userSpaceOnUse" height="54.3927" width="54.5632" x="5.56473" y="65.9476"><feFlood flood-opacity="0" result="BackgroundImageFix"/><feColorMatrix in="SourceAlpha" result="hardAlpha" type="matrix" values="0 0 0 0 0 0 0 0 0 0 0 0 0 0 0 0 0 0 127 0"/><feOffset dy="1.11293"/><feGaussianBlur stdDeviation="2.78233"/><feColorMatrix type="matrix" values="0 0 0 0 0 0 0 0 0 0 0 0 0 0 0 0 0 0 0.3 0"/><feBlend in2="BackgroundImageFix" mode="normal" result="effect1_dropShadow_486_5343"/><feBlend in="SourceGraphic" in2="effect1_dropShadow_486_5343" mode="normal" result="shape"/></filter><filter id="b" color-interpolation-filters="sRGB" filterUnits="userSpaceOnUse" height="76.442" width="89.2748" x="48.2632" y="-1.06021"><feFlood flood-opacity="0" result="BackgroundImageFix"/><feColorMatrix in="SourceAlpha" result="hardAlpha" type="matrix" values="0 0 0 0 0 0 0 0 0 0 0 0 0 0 0 0 0 0 127 0"/><feOffset dy="1.92002"/><feGaussianBlur stdDeviation="4.80005"/><feColorMatrix type="matrix" values="0 0 0 0 0 0 0 0 0 0 0 0 0 0 0 0 0 0 0.3 0"/><feBlend in2="BackgroundImageFix" mode="normal" result="effect1_dropShadow_486_5343"/><feBlend in="SourceGraphic" in2="effect1_dropShadow_486_5343" mode="normal" result="shape"/></filter><filter id="c" color-interpolation-filters="sRGB" filterUnits="userSpaceOnUse" height="61.9463" width="75.2451" x="71.316" y="74.4679"><feFlood flood-opacity="0" result="BackgroundImageFix"/><feColorMatrix in="SourceAlpha" result="hardAlpha" type="matrix" values="0 0 0 0 0 0 0 0 0 0 0 0 0 0 0 0 0 0 127 0"/><feOffset dy="2.22586"/><feGaussianBlur stdDeviation="5.56466"/><feColorMatrix type="matrix" values="0 0 0 0 0 0 0 0 0 0 0 0 0 0 0 0 0 0 0.3 0"/><feBlend in2="BackgroundImageFix" mode="normal" result="effect1_dropShadow_486_5343"/><feBlend in="SourceGraphic" in2="effect1_dropShadow_486_5343" mode="normal" result="shape"/></filter><mask id="d" height="164" maskUnits="userSpaceOnUse" width="150" x="0" y="0"><path d="m0 0h150v164h-150z" fill="#fff"/></mask><mask id="e" height="152" maskUnits="userSpaceOnUse" width="151" x="-1" y="20"><path d="m149.98 95.9989c0 11.2841-2.472 21.9791-6.922 31.5771-11.888 25.748-37.895 43.583-68.0775 43.583-30.1723 0-56.1791-17.835-68.07773-43.583-4.44933-9.598-6.9223012-20.293-6.9223012-31.5771 0-41.5212 33.5675312-75.1606 75.0000312-75.1606 41.4425 0 74.9995 33.6394 74.9995 75.1606z" fill="#b6babf"/></mask><g mask="url(#d)"><path d="m149.98 95.9994c0 11.2846-2.472 21.9796-6.922 31.5776-11.888 25.748-37.895 43.583-68.0775 43.583-30.1723 0-56.1791-17.835-68.07773-43.583-4.44933-9.598-6.9223012-20.293-6.9223012-31.5776 0-41.5212 33.5675312-75.1607 75.0000312-75.1607 41.4425 0 74.9995 33.6395 74.9995 75.1607z" fill="#f0f1f2"/><path d="m120.648 155.538v-131.4672c0-6.2645-5.119-11.3557-11.417-11.3557h-68.4987c-6.2981 0-11.4165 5.0912-11.4165 11.3557v131.4622c12.6456 9.739 28.48 15.525 45.6659 15.525 17.1882 0 33.0223-5.784 45.6663-15.52z" fill="#42474c"/><path clip-rule="evenodd" d="m117.547 22.8716h-85.1355v107.6614h-.0004v27.365c12.092 8.366 26.758 13.263 42.5676 13.263 15.8116 0 30.4773-4.895 42.5673-13.258v-22.291h.001z" fill="#f0f1f2" fill-rule="evenodd"/><g mask="url(#e)"><path d="m36.9301 125.454h77.4962v56.8783h-77.4962z" fill="#fff"/></g><path d="m36.9297 125.456h77.4963v-90.828c0-3.688-2.99-6.6776-6.678-6.6776h-64.1407c-3.6879 0-6.6776 2.9897-6.6776 6.6776z" fill="#fff"/><g fill="#e8e9eb"><rect height="33.5176" rx="4.45173" transform="matrix(1 0 0 -1 41.0078 68.5767)" width="69.3387"/><rect height="5.07842" rx="2.53921" width="55.0631" x="43.0459" y="76.7024"/><rect height="28.4392" rx="4.45173" transform="matrix(1 0 0 -1 41.0117 151.863)" width="66.2796"/><rect height="28.4392" rx="4.45173" transform="matrix(1 0 0 -1 41.0117 117.333)" width="66.2796"/></g><g filter="url(#a)"><ellipse cx="32.8463" cy="92.031" fill="#108060" rx="21.7169" ry="21.6317"/></g><path d="m38.95 94.3285c-1.1431 0-2.1772.4599-2.9421 1.1981l-7.0261-3.522c.0212-.1703.0524-.3378.0524-.5153 0-.1774-.0312-.3449-.0524-.5153l7.0261-3.522c.7649.7382 1.799 1.1982 2.9421 1.1982 2.343 0 4.2497-1.9108 4.2497-4.2588s-1.9067-4.2587-4.2497-4.2587c-2.3429 0-4.2496 1.9107-4.2496 4.2587 0 .1775.0311.345.0524.5153l-7.0261 3.522c-.7882-.7672-1.8434-1.1969-2.9421-1.1981-2.343 0-4.2497 1.9108-4.2497 4.2587 0 2.348 1.9067 4.2588 4.2497 4.2588 1.1431 0 2.1772-.46 2.9421-1.1981l7.0261 3.5219c-.0213.1704-.0524.3379-.0524.5153 0 2.3478 1.9067 4.2588 4.2496 4.2588 2.343 0 4.2497-1.911 4.2497-4.2588 0-2.3479-1.9067-4.2587-4.2497-4.2587z" fill="#fff"/><g fill="#fff" filter="url(#b)"><path d="m57.8633 12.714c0-3.3657 2.7392-6.09413 6.1181-6.09413h57.8386c3.379 0 6.118 2.72843 6.118 6.09413v37.5803c0 3.3657-2.739 6.0941-6.118 6.0941h-57.8386c-3.3789 0-6.1181-2.7284-6.1181-6.0941z"/><path d="m69.0798 56.0998 7.7926-7.762 7.7925 7.762-7.7925 7.7619z"/></g><path d="m97.4644 20.4998 16.2756-7.6152c.849-.3971 1.823.2223 1.823 1.1593v29.4242c0 .937-.974 1.5564-1.823 1.1593l-16.2756-7.6152z" fill="#02614e"/><rect fill="#1f2225" height="6.08123" rx="1.92002" width="5.45106" x="89.1759" y="36.1411"/><path d="m81.762 20.502h15.6998v16.5069h-15.6998z" fill="#108060"/><path d="m81.762 20.502h-1.3409c-4.5582 0-8.2534 3.6952-8.2534 8.2534 0 4.5583 3.6952 8.2535 8.2534 8.2535h1.3409z" fill="#02614e"/><path d="m81.9811 36.5751h10.9021l-2.5783 9.7463c-.817 3.0884-3.6113 5.2396-6.806 5.2396h-.2378c-.7069 0-1.28-.5731-1.28-1.2801z" fill="#108060"/><rect fill="#fff" height=".868749" rx=".434375" width="7.84954" x="85.0348" y="28.3225"/><rect fill="#fff" height=".868749" rx=".434375" width="5.6691" x="86.1285" y="30.493"/><rect fill="#fff" height=".868743" rx=".434372" width="5.6691" x="86.1246" y="26.1481"/><path d="m142.882 106.735-33.474-26.8165c-.276-.2225-.67-.2225-.946 0l-33.4815 26.8125.002 1.468v36.098c0 1.375 1.1157 2.49 2.4919 2.49h62.9216c1.376 0 2.492-1.115 2.492-2.49v-36.098z" fill="#02614e"/><g filter="url(#c)"><path d="m82.4453 83.3713h52.9867v39.6877h-52.9867z" fill="#fff"/></g><rect fill="#e8e9eb" height="17.5225" rx="3.84004" width="30.7852" x="94.5732" y="104.901"/><path d="m78.4277 107.583c-1.0685-.536-2.2477-.849-3.4434-.849v38.252c0 .994.8063 1.799 1.8009 1.799h65.3518c.415 0 .752-.336.752-.752l-.006-39.294c-1.195 0-2.369.308-3.437.844l-30.509 15.311z" fill="#00735c"/><path d="m110.355 118.678 32.534 26.24v1.116c0 .415-.317.752-.732.752h-64.6808c-2.4486.13-2.4919-1.868-2.4919-1.868l32.5337-26.24c.828-.668 2.01-.668 2.837 0z" fill="#108060"/><rect fill="#e8e9eb" height="3.50448" rx="1.75224" width="16.712" x="101.609" y="89.1302"/><rect fill="#e8e9eb" height="3.50449" rx="1.75224" width="30.7852" x="94.5732" y="95.2645"/></g></svg>